<svg width="21" height="21" viewBox="0 0 21 21" fill="none" xmlns="http://www.w3.org/2000/svg">
<path d="M1.10742 10.396L3.10742 8.396M3.10742 8.396L10.1074 1.396L17.1074 8.396M3.10742 8.396V18.396C3.10742 18.6612 3.21278 18.9156 3.40032 19.1031C3.58785 19.2906 3.84221 19.396 4.10742 19.396H7.10742M17.1074 8.396L19.1074 10.396M17.1074 8.396V18.396C17.1074 18.6612 17.0021 18.9156 16.8145 19.1031C16.627 19.2906 16.3726 19.396 16.1074 19.396H13.1074M7.10742 19.396C7.37264 19.396 7.62699 19.2906 7.81453 19.1031C8.00206 18.9156 8.10742 18.6612 8.10742 18.396V14.396C8.10742 14.1308 8.21278 13.8764 8.40032 13.6889C8.58785 13.5014 8.84221 13.396 9.10742 13.396H11.1074C11.3726 13.396 11.627 13.5014 11.8145 13.6889C12.0021 13.8764 12.1074 14.1308 12.1074 14.396V18.396C12.1074 18.6612 12.2128 18.9156 12.4003 19.1031C12.5879 19.2906 12.8422 19.396 13.1074 19.396M7.10742 19.396H13.1074" stroke="black" stroke-width="2" stroke-linecap="round" stroke-linejoin="round"/>
</svg>
