<svg width="15" height="16" viewBox="0 0 15 16" fill="none" xmlns="http://www.w3.org/2000/svg">
<path d="M7.5 4.40812V12.5331V4.40812ZM7.5 4.40812C6.77 3.92312 5.77875 3.625 4.6875 3.625C3.59625 3.625 2.605 3.92312 1.875 4.40812V12.5331C2.605 12.0481 3.59625 11.75 4.6875 11.75C5.77875 11.75 6.77 12.0481 7.5 12.5331M7.5 4.40812C8.23 3.92312 9.22125 3.625 10.3125 3.625C11.4044 3.625 12.395 3.92312 13.125 4.40812V12.5331C12.395 12.0481 11.4044 11.75 10.3125 11.75C9.22125 11.75 8.23 12.0481 7.5 12.5331" fill="black"/>
<path d="M7.5 4.40812V12.5331M7.5 4.40812C6.77 3.92312 5.77875 3.625 4.6875 3.625C3.59625 3.625 2.605 3.92312 1.875 4.40812V12.5331C2.605 12.0481 3.59625 11.75 4.6875 11.75C5.77875 11.75 6.77 12.0481 7.5 12.5331M7.5 4.40812C8.23 3.92312 9.22125 3.625 10.3125 3.625C11.4044 3.625 12.395 3.92312 13.125 4.40812V12.5331C12.395 12.0481 11.4044 11.75 10.3125 11.75C9.22125 11.75 8.23 12.0481 7.5 12.5331" stroke="white" stroke-width="2" stroke-linecap="round" stroke-linejoin="round"/>
</svg>
