<svg width="28" height="28" viewBox="0 0 28 28" fill="none" xmlns="http://www.w3.org/2000/svg">
<g clip-path="url(#clip0_100_1950)">
<path d="M13.9998 17.5C15.9328 17.5 17.4998 15.933 17.4998 14C17.4998 12.067 15.9328 10.5 13.9998 10.5C12.0668 10.5 10.4998 12.067 10.4998 14C10.4998 15.933 12.0668 17.5 13.9998 17.5Z" stroke="black" stroke-width="3" stroke-linecap="round" stroke-linejoin="round"/>
<path d="M22.6332 17.5C22.4779 17.8519 22.4315 18.2422 22.5002 18.6207C22.5688 18.9992 22.7492 19.3484 23.0182 19.6234L23.0882 19.6934C23.3051 19.9101 23.4772 20.1674 23.5946 20.4507C23.7121 20.7339 23.7725 21.0376 23.7725 21.3442C23.7725 21.6508 23.7121 21.9545 23.5946 22.2377C23.4772 22.521 23.3051 22.7783 23.0882 22.995C22.8715 23.212 22.6141 23.3841 22.3309 23.5015C22.0476 23.6189 21.744 23.6794 21.4373 23.6794C21.1307 23.6794 20.8271 23.6189 20.5438 23.5015C20.2605 23.3841 20.0032 23.212 19.7865 22.995L19.7165 22.925C19.4415 22.6561 19.0923 22.4756 18.7139 22.407C18.3354 22.3384 17.9451 22.3847 17.5932 22.54C17.2481 22.6879 16.9538 22.9335 16.7465 23.2465C16.5392 23.5595 16.428 23.9263 16.4265 24.3017V24.5C16.4265 25.1189 16.1807 25.7124 15.7431 26.1499C15.3055 26.5875 14.712 26.8334 14.0932 26.8334C13.4743 26.8334 12.8808 26.5875 12.4433 26.1499C12.0057 25.7124 11.7598 25.1189 11.7598 24.5V24.395C11.7508 24.0089 11.6258 23.6343 11.4011 23.3202C11.1764 23.006 10.8624 22.7667 10.4998 22.6334C10.148 22.4781 9.75761 22.4317 9.37915 22.5003C9.00069 22.569 8.65146 22.7494 8.3765 23.0184L8.3065 23.0884C8.0898 23.3053 7.83246 23.4774 7.5492 23.5948C7.26594 23.7123 6.96231 23.7727 6.65567 23.7727C6.34903 23.7727 6.04541 23.7123 5.76214 23.5948C5.47888 23.4774 5.22154 23.3053 5.00484 23.0884C4.78789 22.8717 4.61579 22.6143 4.49836 22.331C4.38094 22.0478 4.3205 21.7442 4.3205 21.4375C4.3205 21.1309 4.38094 20.8273 4.49836 20.544C4.61579 20.2607 4.78789 20.0034 5.00484 19.7867L5.07484 19.7167C5.3438 19.4417 5.52422 19.0925 5.59284 18.714C5.66146 18.3356 5.61514 17.9452 5.45984 17.5934C5.31195 17.2483 5.06639 16.954 4.75338 16.7467C4.44038 16.5394 4.07359 16.4282 3.69817 16.4267H3.49984C2.881 16.4267 2.28751 16.1809 1.84992 15.7433C1.41234 15.3057 1.1665 14.7122 1.1665 14.0934C1.1665 13.4745 1.41234 12.881 1.84992 12.4434C2.28751 12.0059 2.881 11.76 3.49984 11.76H3.60484C3.991 11.751 4.36551 11.626 4.67969 11.4013C4.99386 11.1766 5.23317 10.8625 5.3665 10.5C5.52181 10.1481 5.56813 9.7578 5.49951 9.37933C5.43089 9.00087 5.25046 8.65165 4.9815 8.37669L4.9115 8.30669C4.69456 8.08998 4.52245 7.83264 4.40503 7.54938C4.28761 7.26612 4.22717 6.96249 4.22717 6.65585C4.22717 6.34922 4.28761 6.04559 4.40503 5.76233C4.52245 5.47906 4.69456 5.22172 4.9115 5.00502C5.12821 4.78808 5.38555 4.61597 5.66881 4.49855C5.95207 4.38112 6.2557 4.32068 6.56234 4.32068C6.86897 4.32068 7.1726 4.38112 7.45587 4.49855C7.73913 4.61597 7.99647 4.78808 8.21317 5.00502L8.28317 5.07502C8.55813 5.34398 8.90736 5.5244 9.28582 5.59303C9.66428 5.66165 10.0546 5.61532 10.4065 5.46002H10.4998C10.8449 5.31213 11.1392 5.06657 11.3465 4.75356C11.5538 4.44056 11.665 4.07377 11.6665 3.69835V3.50002C11.6665 2.88118 11.9123 2.28769 12.3499 1.8501C12.7875 1.41252 13.381 1.16669 13.9998 1.16669C14.6187 1.16669 15.2122 1.41252 15.6498 1.8501C16.0873 2.28769 16.3332 2.88118 16.3332 3.50002V3.60502C16.3347 3.98044 16.4459 4.34723 16.6532 4.66023C16.8605 4.97324 17.1548 5.2188 17.4998 5.36669C17.8517 5.52199 18.2421 5.56831 18.6205 5.49969C18.999 5.43107 19.3482 5.25065 19.6232 4.98169L19.6932 4.91169C19.9099 4.69474 20.1672 4.52264 20.4505 4.40521C20.7337 4.28779 21.0374 4.22735 21.344 4.22735C21.6506 4.22735 21.9543 4.28779 22.2375 4.40521C22.5208 4.52264 22.7781 4.69474 22.9948 4.91169C23.2118 5.12839 23.3839 5.38573 23.5013 5.66899C23.6187 5.95226 23.6792 6.25588 23.6792 6.56252C23.6792 6.86916 23.6187 7.17279 23.5013 7.45605C23.3839 7.73931 23.2118 7.99665 22.9948 8.21335L22.9248 8.28335C22.6559 8.55831 22.4755 8.90754 22.4068 9.286C22.3382 9.66446 22.3845 10.0548 22.5398 10.4067V10.5C22.6877 10.8451 22.9333 11.1394 23.2463 11.3467C23.5593 11.554 23.9261 11.6652 24.3015 11.6667H24.4998C25.1187 11.6667 25.7122 11.9125 26.1498 12.3501C26.5873 12.7877 26.8332 13.3812 26.8332 14C26.8332 14.6189 26.5873 15.2124 26.1498 15.6499C25.7122 16.0875 25.1187 16.3334 24.4998 16.3334H24.3948C24.0194 16.3349 23.6526 16.4461 23.3396 16.6534C23.0266 16.8607 22.7811 17.155 22.6332 17.5Z" stroke="black" stroke-width="3" stroke-linecap="round" stroke-linejoin="round"/>
</g>
<defs>
<clipPath id="clip0_100_1950">
<rect width="28" height="28" fill="white"/>
</clipPath>
</defs>
</svg>
