<svg width="15" height="16" viewBox="0 0 15 16" fill="none" xmlns="http://www.w3.org/2000/svg">
<path d="M13.2363 3.91653L7.61133 2.04153C7.53907 2.01741 7.46093 2.01741 7.38867 2.04153L1.76367 3.91653C1.69372 3.93988 1.63288 3.98464 1.58977 4.04448C1.54666 4.10431 1.52345 4.17618 1.52344 4.24993V8.93743C1.52344 9.03067 1.56048 9.12009 1.62641 9.18602C1.69234 9.25195 1.78176 9.28899 1.875 9.28899C1.96824 9.28899 2.05766 9.25195 2.12359 9.18602C2.18952 9.12009 2.22656 9.03067 2.22656 8.93743V4.73743L4.49297 5.49329C4.20716 5.91567 4.01349 6.39349 3.92456 6.89566C3.83562 7.39783 3.85342 7.9131 3.97678 8.40794C4.10015 8.90279 4.32632 9.36611 4.64058 9.76776C4.95484 10.1694 5.35015 10.5004 5.80078 10.7392C4.67285 11.1218 3.69141 11.887 2.98828 12.9657C2.94786 13.0432 2.9377 13.1328 2.95978 13.2173C2.98186 13.3018 3.03459 13.3751 3.10771 13.4228C3.18082 13.4706 3.2691 13.4894 3.35533 13.4756C3.44157 13.4619 3.51959 13.4165 3.57422 13.3484C4.48066 11.9603 5.91094 11.164 7.5 11.164C9.08906 11.164 10.5193 11.9603 11.4258 13.3484C11.4801 13.4179 11.5585 13.4646 11.6456 13.479C11.7327 13.4933 11.822 13.4745 11.8958 13.4261C11.9696 13.3776 12.0225 13.3033 12.0439 13.2177C12.0654 13.1321 12.0539 13.0415 12.0117 12.964C11.3086 11.887 10.3283 11.1218 9.19922 10.7374C9.64961 10.4984 10.0446 10.1672 10.3586 9.76543C10.6726 9.36366 10.8984 8.90029 11.0215 8.40548C11.1446 7.91066 11.1621 7.39547 11.073 6.89342C10.9839 6.39138 10.79 5.91372 10.5041 5.49153L13.2363 4.58333C13.3062 4.55994 13.367 4.51516 13.4101 4.45533C13.4532 4.3955 13.4763 4.32365 13.4763 4.24993C13.4763 4.17621 13.4532 4.10435 13.4101 4.04452C13.367 3.98469 13.3062 3.93992 13.2363 3.91653ZM10.4297 7.53118C10.4299 7.99801 10.3185 8.45814 10.1049 8.87322C9.89125 9.2883 9.58151 9.64631 9.20148 9.91744C8.82144 10.1886 8.38212 10.3649 7.92011 10.4319C7.4581 10.4988 6.98679 10.4544 6.54543 10.3023C6.10407 10.1502 5.70545 9.8948 5.38278 9.55743C5.06011 9.22006 4.82274 8.81047 4.69043 8.36277C4.55813 7.91508 4.53472 7.44225 4.62217 6.98368C4.70962 6.52511 4.90539 6.09408 5.19316 5.72649L7.38867 6.45833C7.46093 6.48245 7.53907 6.48245 7.61133 6.45833L9.80684 5.72649C10.211 6.24115 10.4304 6.87678 10.4297 7.53118ZM7.5 5.75462L2.98828 4.24993L7.5 2.74524L12.0117 4.24993L7.5 5.75462Z" fill="black"/>
</svg>
